<?xml version="1.0" standalone="no"?>
<!DOCTYPE svg PUBLIC "-//W3C//DTD SVG 20010904//EN"
 "http://www.w3.org/TR/2001/REC-SVG-20010904/DTD/svg10.dtd">
<svg version="1.0" xmlns="http://www.w3.org/2000/svg"
 width="700.000000pt" height="700.000000pt" viewBox="0 0 700.000000 700.000000"
 preserveAspectRatio="xMidYMid meet">
<metadata>
Created by potrace 1.11, written by Peter Selinger 2001-2013
</metadata>
<g transform="translate(0.000000,700.000000) scale(0.100000,-0.100000)"
fill="#000000" stroke="none">
<path d="M2000 6112 l-1505 -869 -2 -1749 -2 -1749 1456 -840 c801 -462 1481
-854 1512 -872 l56 -31 1510 872 1510 871 0 1749 0 1748 -1505 869 c-828 478
-1510 869 -1515 869 -6 0 -688 -391 -1515 -868z m1180 -1530 l5 -662 55 41
c74 56 171 103 277 136 82 25 101 27 268 27 167 0 186 -2 268 -27 101 -31 148
-53 230 -109 164 -111 283 -289 344 -513 l27 -100 4 -817 3 -818 -400 0 -400
0 -3 703 -3 702 -23 57 c-26 65 -90 137 -149 166 -21 11 -67 25 -100 32 -142
25 -284 -34 -355 -148 -47 -76 -48 -94 -48 -824 l0 -688 -400 0 -400 0 0 1755
0 1755 398 -2 397 -3 5 -663z"/>
</g>
</svg>
