<svg version="1.1" xmlns="http://www.w3.org/2000/svg" xmlns:xlink="http://www.w3.org/1999/xlink" x="0px" y="0px"
	 viewBox="0 445.8 900 906.1" enable-background="new 0 445.8 900 906.1" xml:space="preserve">
	<path fill="#fff" d="M598.4,879.1L411.6,743.3c-6.9-5-16-5.7-23.5-1.9c-7.6,3.8-12.3,11.6-12.3,20v271.6c0,8.5,4.7,16.3,12.3,20.1
		c3.2,1.6,6.7,2.4,10.2,2.4c4.6,0,9.3-1.5,13.2-4.4l186.9-135.7c5.9-4.3,9.3-11.1,9.3-18.2C607.8,890.1,604.3,883.4,598.4,879.1z"/>
	<path fill="#fff" d="M450,446.8c-248.6,0-450,201.4-450,450c0,248.5,201.4,449.9,450,449.9c248.5,0,450-201.4,450-449.9
		C900,648.2,698.5,446.8,450,446.8z M450,1271.6c-207,0-374.8-167.7-374.8-374.8C75.2,689.8,243,521.9,450,521.9
		c207,0,374.8,167.9,374.8,374.9C824.8,1103.8,657,1271.6,450,1271.6z"/>
</svg>
