<?xml version="1.0" encoding="utf-8"?>
<!-- Generator: Adobe Illustrator 18.0.0, SVG Export Plug-In . SVG Version: 6.00 Build 0)  -->
<!DOCTYPE svg PUBLIC "-//W3C//DTD SVG 1.1//EN" "http://www.w3.org/Graphics/SVG/1.1/DTD/svg11.dtd">
<svg version="1.1" id="Layer_1" xmlns="http://www.w3.org/2000/svg" xmlns:xlink="http://www.w3.org/1999/xlink" x="0px" y="0px"
	 viewBox="0 0 56.7 56.7" enable-background="new 0 0 56.7 56.7" xml:space="preserve">
<g>
	<path d="M8.5,3.1c-3.8,0-6.2,2.5-6.2,5.7c0,3.2,2.4,5.7,6.1,5.7h0.1c3.8,0,6.2-2.5,6.2-5.7C14.6,5.6,12.3,3.1,8.5,3.1z"/>
	<rect x="2.9" y="19.1" width="11" height="33.1"/>
	<path d="M31.1,52.2V33.7c0-1,0.1-2,0.4-2.7c0.8-2,2.6-4,5.7-4c4,0,5.6,3,5.6,7.5v17.7h11h0v-19c0-10.2-5.4-14.9-12.7-14.9
		c-5.8,0-8.5,3.2-9.9,5.5v-4.7h-11c0.1,3.1,0,33.1,0,33.1H31.1z M31.1,23.8v0.1H31C31,23.8,31,23.8,31.1,23.8z"/>
</g>
</svg>
