<svg xmlns="http://www.w3.org/2000/svg" width="14" height="14" viewBox="0 0 14 14"><circle cx="10.7" cy="3.3" r=".8"/><path d="M7 3.4C5 3.4 3.4 5 3.4 7S5 10.6 7 10.6 10.6 9 10.6 7 9 3.4 7 3.4zm0 5.9c-1.3 0-2.3-1-2.3-2.3s1-2.3 2.3-2.3c1.3 0 2.3 1 2.3 2.3S8.3 9.3 7 9.3z"/><path d="M14 4.1c-.1-2.5-1.5-4-4.1-4.1H4.1C1.6.2.2 1.6 0 4.1v5.8c.1 2.5 1.5 4 4.1 4.1h5.8c2.5-.1 4-1.5 4.1-4.1V7 4.1zm-1.3 5.7c-.1 1.9-1 2.8-2.9 2.9H4.2c-1.9-.1-2.8-1-2.9-2.9V7 4.2c.1-1.9 1-2.8 2.9-2.9h5.6c1.9.1 2.8 1 2.9 2.9v5.6z"/></svg>