<svg xmlns="http://www.w3.org/2000/svg" width="692.8" height="197.6" viewBox="0 0 692.8 197.6">
  <g fill-rule="evenodd" clip-rule="evenodd" fill="#FAFFF9">
    <path d="M314.6 54.2c6.1 2.7 6.6 4.7 1.7 13.8-4.8 9.4-6.1 9.8-12 7.5-7.5-3.3-17.2-5.6-23.4-5.6-10.2 0-17 3.6-17 9.2 0 18.3 58.4 8.4 58.4 47.5 0 19.7-16.9 32.8-42.2 32.8-13.3 0-29.7-4.4-41.1-10.2-5.6-2.8-5.9-4.5-1.1-13.9 4.2-8.3 5.6-9.1 11.7-6.6 9.7 4.2 21.9 7.5 30.2 7.5 9.4 0 15.5-3.7 15.5-9.4 0-17.8-59.5-9.4-59.5-47.2 0-20.2 16.7-33.6 41.9-33.6 11.7 0 26.6 3.5 36.9 8.2zm47.2-46.4v145.6c0 2.2-2.3 4.5-5.6 4.5h-15.3c-3.3 0-5.6-2.3-5.6-4.5V7.8c0-7.2 2-7.8 13.3-7.8 12.7-.1 13.2.8 13.2 7.8zm108.9 81.9v62.7c0 3.3-2.3 5.6-5.6 5.6h-15.2c-3.4 0-5.9-2.5-5.6-5.9l.2-6.7c-8.3 9.1-20 13.9-31.7 13.9-22.8 0-38.1-13.3-38.1-33 0-20.9 17.3-35.2 43.3-35.2 9.8 0 18.9 1.7 26.2 4.8v-7.2c0-11.6-9.1-18.4-24.5-18.4-7.2 0-16.1 2.8-23.1 7-5.5 3.1-6.7 2.8-12.7-5.9-5.8-8.8-5.6-10.5 0-14.1 10.6-6.9 25.2-11.2 38.4-11.2 29.6-.1 48.4 16.1 48.4 43.6zM400.1 126c0 7.5 6.2 12.5 15.9 12.5 11.6 0 22-5.6 28.1-15v-9.8c-6.1-2.3-13.6-3.6-20.2-3.6-14.3-.1-23.8 6.6-23.8 15.9zm174.5-71.6c5.6 3.3 5.8 5-.3 14.4-5.8 8.9-6.7 9.4-12.8 6.2-4.7-2.5-12-4.5-18.3-4.5-19.2 0-32 12.7-32 31.7 0 19.8 12.8 33.1 32 33.1 6.7 0 15-2.5 20.5-5.6 5.6-3.3 6.7-3 12.7 5.6 5.3 8 5.2 9.8.5 13.3-8.6 5.9-22 10.5-33.9 10.5-35.5 0-59.2-22.8-59.2-56.9 0-33.9 23.8-56.4 59.5-56.4 10.5.2 23.3 3.9 31.3 8.6zm115.9 89.8c4.4 5.6 2.7 7.7-8.4 11.7-11.2 4.1-12.8 3.9-16.9-1.4l-31.7-42.3-14.2 13.8v27.5c0 2.2-2.3 4.5-5.6 4.5h-15.5c-3.3 0-5.6-2.3-5.6-4.5V7.8c0-7.2 2-7.8 13.3-7.8 12.8 0 13.3.9 13.3 7.8v82.8l43.4-41.7c4.8-4.5 7.5-4.2 15.9 1.4 9.4 6.1 10.2 7.8 5.6 12.2l-32.3 31.6 38.7 50.1z"/>
    <path d="M80.5 91.8l26.1-8.8 8.4 25.2-26.1 8.8-8.4-25.2z"/>
    <path d="M80.5 91.8l26.1-8.8 8.4 25.2-26.1 8.8-8.4-25.2z"/>
    <path d="M187.3 73C167.1 5.8 138-9.8 70.8 10.3S-12 59.5 8.2 126.7s49.2 82.8 116.4 62.7 82.8-49.2 62.7-116.4zm-34 43.6l-12.7 4.2 4.4 13.1c1.7 5.3-1.1 11.1-6.4 12.8-1.1.3-2.3.6-3.4.5-4.1-.2-8-2.8-9.4-6.9l-4.4-13.1-26 8.8 4.4 13.1c1.7 5.3-1.1 11.1-6.4 12.8-1.1.3-2.3.6-3.4.5-4.1-.2-8-2.8-9.4-6.9l-4.4-13.1-12.7 4.2c-1.1.3-2.3.6-3.4.5-4.1-.2-8-2.8-9.4-6.9-1.7-5.3 1.1-11.1 6.4-12.8l12.7-4.2L61.3 98l-12.7 4.2c-1.1.3-2.3.6-3.4.5-4.1-.2-8-2.8-9.4-6.9-1.7-5.3 1.1-11.1 6.4-12.8l12.7-4.2-4.4-13.1c-1.7-5.3 1.1-11.1 6.4-12.8 5.3-1.7 11.1 1.1 12.8 6.4l4.4 13.1 26.1-8.7-4.4-13.1c-1.7-5.3 1.1-11.1 6.4-12.8 5.3-1.7 11.1 1.1 12.8 6.4l4.4 13.1 12.7-4.2c5.3-1.7 11.1 1.1 12.8 6.4 1.7 5.3-1.1 11.1-6.4 12.8l-12.7 4.2 8.4 25.2 12.7-4.2c5.3-1.7 11.1 1.1 12.8 6.4 1.8 5.2-1 11-6.4 12.7z"/>
  </g>
</svg>