<svg xmlns="http://www.w3.org/2000/svg" width="491.9" height="431" viewBox="0 0 491.9 431"><circle fill="#FFF" cx="215.5" cy="215.5" r="215.5"/><path fill="#02ACDD" d="M397.8 332.2c-2.2-3.6-4.6-7.1-6.6-10.8-17.8-32.6 4.2-71.2 36.7-76.8.8-.1 1.5-.7 2.2-1 33.5-4.6 60.8 20.5 61.7 51.6.6 22.1-11.9 41.5-32.4 50.8-19 8.6-42.3 4.5-58.1-10.2-1.1-1.3-2.3-2.5-3.5-3.6zm19.2-30.3c1.7.4 1.9 2.2 3 3.1 4.3 3.9 9.2 4.5 14.4 2.7 4.4-1.6 7.1-4.9 7.6-9.6.8-7.2-4.1-12.9-11.5-13.4-7.6-.6-13.5 4.4-14.1 11.7-.1 1.6 1.1 3.2-.3 4.7-2.6.5-4.1-3.4-6.8-1.7-1.9 1.2-3.7 1.7-5.2-.4-1.1-1.5-1.2-3.1 0-4.6 1.5-2.1 3.2-1.5 5.2-.5 2.7 1.3 5.1-.6 6.4-2.5 1.7-2.5-1.2-3.8-2.8-4.9-5.5-3.7-13.8-1.7-17.1 3.9-3.4 5.6-1.5 13.3 4 16.7 5.8 3.6 13.4 1.4 17.2-5.2zm65.6-3.4v-3c0-10.3-4.5-13.2-13.8-8.9-1.5.7-2.3.6-3.5-.3-2.8-2.2-5.9-2.1-8.9-.6-1.4.7-2.2.8-3.8 0-5.6-2.7-8.8-.6-8.8 5.5 0 4.2.2 8.3 0 12.5-.2 3.6 1.4 4.5 4.8 4.5 3.5 0 5.4-.7 5.2-4.6-.2-2.5-.1-5 0-7.5.1-1.4.5-2.8 2.2-2.8 1.7 0 2.2 1.3 2.3 2.7.1 2.8 0 5.7.1 8.5 0 1.5.2 2.9 2 3.5 5.1 1.6 7.8-.3 7.8-5.7v-6c0-1.7.6-3.1 2.5-3 1.6.1 2.2 1.5 2.3 2.8.1 2.8.1 5.7.1 8.5 0 1.3-.1 2.6 1.6 3.3 4.7 1.9 8-.3 8-5.4-.1-1.4-.1-2.7-.1-4z"/><path fill="#57306F" d="M114.7 141.5c-3.4 5.2-7 10.4-10.2 15.8-1.9 3.1-3.3 3.2-5.2.1-3.3-5.3-6.8-10.5-10.2-15.8-.5.1-1 .1-1.5.2v15.5c0 12.6 1.4 12.3-12.1 12.2-8.1-.1-8.3-.2-8.3-8.5v-46.5c0-6.3.7-7 6.7-7 16.9.1 13.9-1.8 22.7 12.6 5.4 8.9 5.4 8.9 10.8.1.1-.1.2-.3.3-.4 8.7-13.9 5-12.2 23.3-12.3 3.9 0 6 1.5 5.9 6-.2 16.7-.1 33.3 0 50 0 4.2-1.5 6.3-5.8 6.1-2.7-.1-5.3 0-8 0-6.3 0-6.9-.6-7-6.8V142c-.4-.1-.9-.3-1.4-.5zm0 153.1c-3.3 5.1-6.7 10.1-9.9 15.3-2 3.4-3.6 3.9-5.9.2-3.1-5.2-6.6-10.2-9.9-15.3-2.1 1-1.4 2.5-1.5 3.7-.1 3.7.2 7.4-.1 11-.4 4.1 2.3 9.6-1.8 12.2-4.3 2.8-10.1.9-15.2.9-2.6 0-3.4-2.2-3.4-4.7V266c0-3.5 1.7-5.2 5.2-5.1h.5c18.9.2 14.4-2.4 24.7 14.2 4.4 7.1 4.3 7.1 8.7.3l1.1-1.7c9.1-15 5.7-12.6 24.1-12.8 3.7-.1 5.5 1.5 5.5 5.3-.1 17-.1 34 0 50.9 0 4.1-1.6 5.7-5.6 5.7-17.3-.2-14.9 1.9-15.1-14.7v-12.8c-.4-.4-.9-.6-1.4-.7zm-23.5-112c9.9.1 17.5 1.6 24.5 5.4 3.4 1.8 4 3.7 1.7 7.1-6.6 9.5-6.5 9.6-17.5 5.9-3.2-1-6.2-2.4-9.7-1.9-1.4.2-2.7.7-3 2.2-.3 1.6 1.1 2.4 2.4 2.7 3 .8 6.1 1.5 9.2 2.2 4.1.9 8.1 1.9 11.9 3.7 6.6 3 10.7 7.7 10.8 15.3.1 7.6-2.9 13.8-9.7 17.3-13.3 6.8-26.8 5-40-.5-10-4.2-9.8-4.9-3.3-13.4 3.5-4.5 6.5-5.7 11.7-2.8 4 2.3 8.6 3.7 13.3 4.1 2.4.2 5.8 1 6.4-2 .7-3.3-3-3.3-5.3-3.9-5-1.3-10.1-2.1-14.9-3.9-9.9-3.7-14-8.7-13.9-17.2.2-8.8 5.5-15.7 14.5-18.8 4.3-1.2 8.5-1.6 10.9-1.5zm108.6 58.7v13.4c0 3.5-1.7 5.2-5.2 5.2-16.6 0-15 1.5-15-13.9 0-14 .1-27.9.1-41.9 0-6.1.7-6.8 7-6.8h8c1 0 2.6-.1 2.8.4 3.2 5.9 6.1 1.4 9.2 0 8.8-4 19.8-.1 24.6 9.2 4.8 9.3 4.9 19 .3 28.3-5.8 11.9-18.3 15-29.3 7.6-.5-.4-1-.6-2.5-1.5zm7.7-11.3c4.5-.1 7.8-3.9 7.7-8.7-.1-4.9-3.5-8.4-8.1-8.3-4.4.1-7.9 4-7.8 8.7.1 4.6 3.9 8.5 8.2 8.3zm45.1 57.5c1.3-1.6 2-2.1 2.2-2.9 4.7-12.2 15.1-10.4 24.9-10.2 2.7.1 3.2 1.5 1.6 3.6-2.9 3.8-5.8 7.7-8.8 11.5-2.5 3.1-2.8 6.1-.8 9.6 3.5 6.1 6.7 12.3 9.9 18.5 2.1 4 1.5 4.9-3.1 5-2.2.1-4.4-.2-6.5.1-7 1-11.5-1.7-13.9-8.4-.5-1.4-1-4-2.8-3.5-1.7.5-2.9 2.6-3.4 4.6-1.8 7.1-1.8 7.1-9.1 7.1-11.7 0-11.1 1-11.1-11.1 0-15.7.1-31.3-.1-47-.1-4.8 1.8-6.5 6.5-6.4 15.6.3 13.5-1.7 13.7 13.5.1 5-.6 10 .8 16zm-76.8-65.6c0 6-.1 12 0 18 .1 3.9-1.7 5.9-5.6 5.9h-9.5c-1.6 0-3.6-.1-4-1.4-1.8-5-3.9-2.2-6.3-.6-5.8 3.8-11.9 4.2-18 1-5.8-3-7.9-8.4-8-14.5-.1-9.1 0-18.3-.1-27.5-.1-3.8 1.6-5.6 5.3-5.5 3.2 0 6.3.1 9.5 0 3.9-.1 5.4 1.9 5.4 5.5v18c0 5.7 2 8.8 5.5 8.3 5.1-.6 5.5-4.6 5.5-8.6 0-5.8.1-11.7 0-17.5-.1-4.1 1.7-5.7 5.6-5.7 15.7.2 14.7-2 14.6 13.7.1 3.6.1 7.3.1 10.9zm149.9-76.1c3.1-6.5 4.4-12.3 6-17.9 1.2-4.3 3.6-6 7.9-5.8 3.2.2 6.3 0 9.5 0 3.3.1 4.5 1.4 3.2 4.8-5.4 14.3-10.4 28.8-16.1 43-5.9 14.8-21 19.6-35 11.6-1.8-1-3-2.3-2.3-4.4 1-2.8 2.2-5.6 3.6-8.2 1-1.9 2.9-2 4.8-1.3 1.4.5 2.8 1.1 4.3 1.4 1 .2 2.3 1.2 3.2 0 .9-1.1 0-2.2-.4-3.2-5-12.2-9.9-24.4-14.9-36.5-2.6-6.2-2-7.2 4.7-7.2 13.5-.1 13.5 0 17.9 13.1.9 3.1 2.1 6.3 3.6 10.6zm-128.7-.3c0-6.3.1-12.7 0-19 0-3.6 1.5-5.2 5.1-5.1 3.5.1 7 0 10.5 0 1.4 0 3.1-.1 3.6 1.2 1.8 5.1 3.8 2.2 6.2.6 11.2-7.4 24.6-1.4 25.7 12.1.8 9.8.4 19.6.4 29.4 0 3.2-1.6 4.9-4.9 4.9-17.8-.1-15.3 2-15.4-14.3v-10.5c0-3.7-1.2-6.9-5.5-6.8-4.2 0-5.4 3.3-5.5 6.9-.1 6.3-.1 12.7 0 19 .1 4-1.6 5.8-5.6 5.7-16.5-.2-14.5 1.9-14.6-14.1v-10zm-57-.3c0-14.3 11.8-25.1 27.3-25.1 15.4 0 27 11 26.9 25.5-.1 14.2-12.2 25.3-27.4 25.2-15.3-.1-26.8-11-26.8-25.6zm27 8.6c4.2.1 7.7-3.4 7.9-8 .2-4.7-3.3-8.7-7.6-8.8-4.1-.1-7.8 3.6-7.9 8-.3 4.6 3.3 8.7 7.6 8.8zm22.3 150.9c0 4.3-.1 8.7 0 13 .1 3.3-1.3 5-4.7 4.9-4-.1-9.2 1.6-11.7-.4-5.4-4.2-8.9.1-13.2 1.1-9.6 2.3-18.2-2.4-19.8-11-1.9-10 3.9-17.3 14.6-18.4 4-.4 8-.2 11.9.7.8.2 1.8.4 2.3-.3.7-.9.2-1.9-.3-2.8-1.4-2.4-3.7-3.2-6.3-3.5-3.9-.3-7.7.1-11.3 1.4-2.9 1.1-4.4 0-4.9-2.9-.2-1.5-.6-2.9-1.1-4.3-1.2-3.4 0-5.6 3.4-6.4 9.2-2.3 18.4-3.2 27.7-.7 8.1 2.2 12.9 8.2 13.3 16.7.2 4.3.1 8.6.1 12.9zM165 302c-3.2.4-5.8 1.7-6 5.3-.1 3 1.7 4.8 4.6 4.7 3.8-.1 5.5-2.8 5.8-6.3.3-2.8-2.1-3.3-4.4-3.7z"/><path fill="#57306F" d="M313.9 303.2h-11.5c-1 0-2.2.1-2.6 1.1-.6 1.3.4 2.2 1.3 2.9 4 3.3 8 2.6 12 .1 3.4-2.1 12.2 1.8 13 5.7.3 1.6-.8 2.5-1.7 3.4-8.2 9.1-27.2 9.9-37.2 1.6-9.7-8-11.5-24.5-3.8-34.9 7.7-10.5 23.9-13.3 35-5.9 8 5.4 10.2 13.6 10.4 22.6.1 2.5-1.4 3.5-3.8 3.4-3.7-.1-7.4 0-11.1 0zm-9.3-8.9c1.8-.5 5.1.9 4.8-2.5-.2-2.8-2.6-4.7-5.6-4.6-2.7.1-5 1.7-4.8 4.6.3 3.6 3.6 1.9 5.6 2.5zm-18.7-143.5h-11c-1.1 0-2.5-.2-2.9 1.2-.3 1.3.7 2.1 1.6 2.8 3.8 3 7.7 2.4 11.6.1 3.6-2.1 12.1 1.5 13.1 5.4.3 1.3-.4 2.2-1.1 3.1-7.8 9.7-28.3 10.5-38.3 1.4-10.5-9.4-10.6-27.5-.3-37.6 9.9-9.7 27.9-9 36.7 1.6 4.3 5.2 5.6 11.5 5.7 18.2 0 2.6-1.2 3.6-3.6 3.6-3.8.2-7.7.2-11.5.2zm-9.3-8.9c1.8-.5 5.3 1.1 5.1-2.6-.1-2.6-2.5-4.3-5.2-4.4-2.9-.2-5.1 1.7-5.2 4.3-.2 3.5 3.1 2.4 5.3 2.7zm-4.4 84.2h-11c-1.2 0-2.9-.4-3.3 1.4-.4 1.6.9 2.4 2 3.2 3.8 2.7 7.5 1.9 11.2-.3 3.5-2.1 12.1 1.5 13.1 5.4.3 1.3-.4 2.2-1.2 3.1-7.9 9.8-27.9 10.6-38.3 1.5-10.2-9-10.7-26.7-1-36.8 9.4-9.8 26.8-10.1 36-.6 5.3 5.5 6.9 12.3 7.1 19.7.1 2.6-1.3 3.5-3.7 3.5-3.6-.1-7.3-.1-10.9-.1zm-9.7-8.8c1.8-.7 5.1 1.1 5.1-2.3 0-2.9-2.6-4.7-5.5-4.8-2.7-.1-5.1 1.8-5 4.5 0 3.5 3.3 2.2 5.4 2.6zm71.7 84v-7c0-1.4-.1-2.9-1.5-3.5-6.9-2.9-3.4-8.8-3.9-13.4-.1-.8.8-2.2 1.5-2.4 3.8-1.1 4-4 3.8-7.1-.3-3.8 1.6-5.6 5.3-5.4 2 .1 4 0 6 0 7.9 0 7.9 0 8.9 7.7.4 3.3 2.5 4.6 5.5 4.4 4.5-.3 6 1.9 5.5 6-.1 1.3-.1 2.7 0 4 .3 3.8-1.3 5.7-5.2 5.4-4.3-.3-6.1 1.9-5.8 6.1.1 1.7 0 3.3 0 5 .2 5.1 2 6.7 7 5.5 3.4-.8 3.9.2 3.9 3.3.1 12.2-2.7 14.9-15 13.9-10.5-.8-15.3-5.6-16.1-16 0-2.2.2-4.4.1-6.5zm-23.9-96.6c3.1-2.7 5.4-6 9.3-7.3 3-1 5.2-1 5 3.3-.2 4.5 0 9 .2 13.5.1 2.7-.8 3.8-3.6 4.1-7.7 1-10.7 4.3-11.3 12-.3 3.5-.3 7-.3 10.5 0 3.3-1.5 4.9-4.8 5h-.5c-16.8 0-14.9 1.5-14.9-13.9 0-9.5.1-19-.1-28.4-.1-4.5 1.8-6.5 6.2-6.2 1.7.1 3.3 0 5 0 8-.1 8-.1 9.8 7.4zm-96.9 77.9c3.9-4.2 6.7-7.4 10.9-8.5 2.7-.8 4.1-.2 4 3-.1 4.8-.1 9.7 0 14.5 0 2.2-.5 3.2-3 3.6-8.7 1.5-11.2 4.5-11.9 13.2-.2 3-.2 6-.1 9 .1 3.5-1.6 5.2-4.9 5.3-3.7.1-7.3 0-11 0-2.9 0-4.2-1.5-4.2-4.3V279c0-3.1 1.8-4.5 4.8-4.4 2.3 0 4.7.1 7 0 4.9-.6 9 .1 8.4 8z"/><path fill="#FDFCFD" d="M482.6 298.5v4c0 5.1-3.4 7.3-8 5.4-1.6-.7-1.6-1.9-1.6-3.3 0-2.8 0-5.7-.1-8.5-.1-1.4-.7-2.8-2.3-2.8-1.9-.1-2.5 1.4-2.5 3-.1 2 0 4 0 6 0 5.4-2.7 7.3-7.8 5.7-1.9-.6-2-2-2-3.5-.1-2.8 0-5.7-.1-8.5 0-1.4-.6-2.7-2.3-2.7-1.7 0-2.2 1.4-2.2 2.8-.1 2.5-.2 5 0 7.5.3 3.9-1.7 4.7-5.2 4.6-3.3 0-4.9-.9-4.8-4.5.2-4.1 0-8.3 0-12.5 0-6.1 3.1-8.2 8.8-5.5 1.6.8 2.4.7 3.8 0 3-1.5 6.1-1.7 8.9.6 1.2 1 2.1 1 3.5.3 9.3-4.3 13.8-1.4 13.8 8.9.1 1 .1 2 .1 3zm-66.5 2.6c1.5-1.5.2-3.1.3-4.7.6-7.3 6.4-12.3 14.1-11.7 7.5.6 12.4 6.2 11.5 13.4-.5 4.8-3.2 8-7.6 9.6-5.2 1.9-10.1 1.2-14.4-2.7-1.1-1-1.3-2.7-3-3.1l.1.1c-.1-.7.3-1.8-1.1-1.1l.1.2zm13.4-.8c2.2-.4 3.5-1.6 3.4-3.7-.1-2.1-1.1-3.9-3.7-3.8-2.4.2-3.5 1.8-3.2 4.1.2 2.1 1.3 3.5 3.5 3.4z"/><path fill="#FDFCFD" d="M417 301.9c-3.8 6.6-11.3 8.8-17.4 5.1-5.5-3.4-7.4-11.1-4-16.7 3.4-5.6 11.7-7.5 17.1-3.9 1.7 1.1 4.5 2.3 2.8 4.9-1.3 1.9-3.7 3.8-6.4 2.5-2.1-1-3.7-1.6-5.2.5-1.1 1.5-1.1 3.2 0 4.6 1.6 2.1 3.3 1.5 5.2.4 2.7-1.6 4.3 2.2 6.8 1.7l-.1-.1c-.1.9.3 1.2 1.1 1.1l.1-.1zM207.5 230c-4.3.1-8-3.7-8.1-8.4-.1-4.6 3.5-8.6 7.8-8.7 4.5-.1 8 3.5 8.1 8.3 0 4.9-3.4 8.7-7.8 8.8zM167 153.8c-4.2-.1-7.8-4.3-7.7-8.9.2-4.4 3.8-8.1 7.9-8 4.3.1 7.7 4.1 7.6 8.8-.1 4.7-3.6 8.2-7.8 8.1zM165 302c2.3.4 4.7.9 4.4 3.7-.3 3.4-2 6.1-5.8 6.3-2.9.1-4.7-1.7-4.6-4.7.2-3.6 2.9-4.9 6-5.3zm139.6-7.7c-2-.6-5.3 1.1-5.6-2.4-.3-2.9 2.1-4.5 4.8-4.6 3-.1 5.4 1.7 5.6 4.6.2 3.3-3 1.9-4.8 2.4zm-28-152.4c-2.2-.3-5.5.7-5.3-2.8.1-2.6 2.3-4.4 5.2-4.3 2.8.2 5.1 1.8 5.2 4.4.1 3.8-3.3 2.2-5.1 2.7zm-14.1 75.4c-2.1-.5-5.4.9-5.5-2.6-.1-2.7 2.3-4.6 5-4.5 2.8.1 5.5 1.9 5.5 4.8.1 3.4-3.2 1.7-5 2.3z"/><path fill="#02ACDD" d="M429.5 300.3c-2.1 0-3.3-1.3-3.5-3.3-.3-2.3.8-4 3.2-4.1 2.5-.2 3.5 1.6 3.7 3.8 0 2.1-1.3 3.3-3.4 3.6zm-12.4 1.8c-.9.1-1.2-.3-1.1-1.1 1.4-.7 1 .4 1.1 1.1z"/></svg>