<svg xmlns="http://www.w3.org/2000/svg" width="551.7" height="270.3" viewBox="0 0 551.7 270.3"><g fill-rule="evenodd" clip-rule="evenodd" fill="#FAFFF9"><path d="M233 226.4C160.5 169.2 114.9 98.3 112.8 3.8 166.6-7.8 225.4 21.6 252.9 73c29.3 54.8 16.4 115.2-19.9 153.4zM105.9 4.7v156.7c-11.8-1.4-24.6-4.1-37.4-4-19.9.1-39.8 1.8-59.7 3.5-4.7.4-6.5 0-7.2-4.8C-8.8 89 34.2 23.3 99.7 5.9c2.2-.5 4.5-.9 6.2-1.2zM5 173.7c60 3.7 104.8 26.6 127.1 83.9.8-.3 1.5-.5 2.3-.8.3-4.1 1.2-8.2.7-12.2-2.7-21.3-5.7-42.6-8.9-65.7 36.1 14.5 66.7 35.2 97.7 57.7-36.6 30.2-77 40.5-121.9 29.4-48.9-12.2-79.5-44.2-97-92.3zM357.2 12.4c-3.6-.3-6-.4-8.9-.7V1.1c12.9 0 25.7-.1 38.6.2 1.4 0 3.3 2.7 3.9 4.5 1.9 5.8 3.2 11.7 6 17.7 1.8-7.3 3.6-14.6 5.5-22.1h10.8c-5.9 23.7-14.8 46.4-10.9 70.6-11.5 2.3-12.7 1.8-11.9-8.1 1.7-20.5-6-39.1-11.4-58.6l-1.3 6.2c-2.4.3-4.8.7-8.2 1.1v60h-12.1c-.1-19.9-.1-39.7-.1-60.2zm45.2 85.7c7.7.3 14.4.2 21 1.1 6.5.9 11.4 5 11.6 11.7.5 15.8.7 31.6-.2 47.3-.5 8.5-7.5 11.6-15.5 12.5-16.6 1.8-16.9 1.7-16.9-14.9V98.1zm12.5 62c5.2.3 8.7-.9 8.7-6.5.1-12.5.2-24.9.1-37.4-.1-5.3-2.8-8.1-8.8-7.1v51zm28.1-25.4c0-7.5-.6-15.1.2-22.5 1-9.5 6.4-14.1 15.2-14.5 10-.4 16.8 3.6 17.5 13.4 1.2 15.4 1.4 31.1.3 46.5-.8 10.2-7.8 14.3-18.2 13.8-8.7-.5-14.2-5.8-15.1-15.7-.6-6.9-.1-14-.1-21h.2zm21.9 1.2h-.2c0-7.2.4-14.5-.2-21.7-.2-2-3.1-3.9-4.8-5.8-1.6 2-4.6 3.9-4.6 5.9-.4 13.4-.4 26.9 0 40.4.1 2.1 2.8 4.2 4.4 6.2 1.8-2.1 4.9-4.1 5.2-6.4.6-6.1.2-12.4.2-18.6zM433.6 37c.6-8 .6-16.1 2-24 1.6-8.7 7.7-13 15.9-12.9 8.6.1 15.3 4.1 16 12.7 1.2 15.9 1.5 32.1.2 48-.8 10-7.2 13.8-16.7 13.5-8.9-.2-13.4-4.1-15.8-14-.3-1.3-.8-2.5-.8-3.8-.1-6.5 0-13 0-19.5h-.8zm23.2.2c0-6.5.4-13-.2-19.5-.3-2.4-3.1-4.6-4.7-6.9-1.8 2.2-5 4.4-5.1 6.7-.5 13.2-.4 26.5.1 39.7.1 2.2 3.4 4.2 5.2 6.3 1.6-2.3 4.4-4.5 4.6-6.9.5-6.4.1-12.9.1-19.4zm-4.5 194.1c-.5 8.2-.5 16.1-1.6 23.7-1.3 9.2-7.6 13.9-16.8 13.8-8.5 0-15.3-4.9-15.8-13.9-.9-15.7-.7-31.6 0-47.3.4-8 7.8-13.1 15.8-13.1 8.9 0 15.3 4.5 16.7 13.2 1.2 8 1.1 16.1 1.7 23.6zm-22.9-.2c-.1 0-.1 0 0 0-.1 7-.4 14 .1 20.9.2 2.2 2.9 4.1 4.4 6.2 1.7-1.9 4.8-3.7 4.8-5.6.4-13.9.5-27.8 0-41.7-.1-1.9-3.3-3.6-5.1-5.4-1.5 1.9-4 3.6-4.2 5.6-.4 6.5 0 13.3 0 20zm-74-95.7c0 6.5.4 13-.1 19.4-.9 10.9-7.4 16.6-17.6 16.4-9.9-.2-15.9-5.7-16.3-16.7-.5-13.2-.6-26.4-.1-39.6.4-11.3 6.2-16.9 15.9-17.2 10.8-.3 16 4.3 18 16 .1.8.3 1.5.3 2.3v19.4h-.1zm-12.2-.5s.1 0 0 0c.1-6.7.5-13.5-.2-20.2-.2-2.3-3.2-4.3-4.9-6.5-1.6 2-4.5 4-4.6 6.1-.4 13.4-.4 26.9 0 40.3.1 2.1 3 4 4.6 6.1 1.7-2.2 4.6-4.2 4.8-6.5.8-6.3.3-12.8.3-19.3zm141.2-35.6c5.9-2.1 8.8-.7 10.5 4.8 2.8 9.4 6.4 18.6 10.9 27.8 0-9.1-.2-18.2.1-27.2.1-2.2 1.3-5.6 2.8-6.1 3.5-1.1 7.3-1.1 7.3 4.7-.1 20.8.1 41.6-.1 62.4 0 1.7-2 3.4-3.1 5.2-2-1.4-5.2-2.3-5.9-4.2-3.9-10.3-7.1-20.9-12-31.2v34.1c-9.9 2.2-10.3 2-10.3-6.7-.2-21.2-.2-42.2-.2-63.6zm-100.1 32.4V98.6h9.8v71.5c-5 1.6-7.9.7-9.6-5-3-10.3-6.7-20.4-11.5-30.4v29.1c0 3.8.3 7.3-5.4 7.1-5.3-.2-4.7-3.6-4.7-7V99.5c5.9-2.5 8.7-.6 10.4 4.6 3 9.3 6.4 18.4 9.6 27.6h1.4zm84.9 135.9H459v-70.7c6.2-2.7 8.9-.4 10.6 5.6 2.5 8.8 6 17.4 10.6 25.8v-31.9c3.4-.2 6.1-.4 9.4-.6v71.6c-2.3.1-4.7.2-7.4.4-3.9-11.9-7.7-23.3-11.5-34.7-.5.1-1 .2-1.5.2v34.3zm-120.8-71.2c6.1-1.8 8.9.4 10.5 6 2.6 9.1 6.1 17.9 10.5 26.6v-32.7c3.3-.2 6.1-.4 9.5-.6v71.2c-4.6 1.9-7.7.9-9.4-4.7-2.9-9.8-6.4-19.4-11.4-28.9v34h-9.8c.1-23.4.1-46.9.1-70.9zM324.7 27.1h-11.5c-.3-3.9-.1-7.8-1-11.4-.4-1.8-2.8-3.2-4.3-4.7-1.5 1.5-4.3 3-4.3 4.6-.4 14.2-.5 28.5-.2 42.7 0 1.8 3 3.5 4.6 5.3 1.5-2 3.8-3.9 4.4-6.2.8-3.2.2-6.6.2-10.4h12c-.4 4.9-.3 9.5-1.1 14-1.8 9.3-5.9 12.9-14.4 13.4s-16-3.3-16.6-11.7c-1.2-16.9-1.1-34 .1-50.9.6-8 8-11.9 16-11.7 8.5.3 12.9 3.9 14.8 12.9.9 4.4.9 9 1.3 14.1z"/><path d="M180.2 192c-17.1-7.8-34.3-15.6-51.3-23.6-1.8-.8-4.1-2.9-4.3-4.5-2.4-21.2-4.4-42.5-5.5-64.1 15.2 34.4 34.6 65.8 61.1 92.2zm358 60.5c-14.7-3.4-7.3 10.3-12.2 14.9h-10.2c3.9-24.1 7.6-47.6 11.4-70.8 12.8-1.6 13-1.6 14.9 10 3.3 19.9 6.4 39.9 9.6 59.9-9.5 2.9-9.5 2.9-13.5-14zm-.9-10.1c-1-8.1-1.9-15.4-2.9-24.3-5.2 19-4.7 23.7 2.9 24.3zm-248.2 4.3c4.2-.9 7.4-1.6 10.8-2.4.8 3.5 1 6.7 2.2 9.4.7 1.6 2.8 2.7 4.3 4 1.3-1.7 4-3.9 3.6-5.1-1.7-5.2-3.8-10.4-6.6-15.1-3.8-6.3-9.7-11.7-12.2-18.4-1.7-4.7-.3-11.2 1.5-16.3 2.3-6.6 11.1-9.7 17.6-7.6 6.1 2 11.8 10.4 9.9 16.6-.7 2.4-4.9 3.7-8.4 6.1-.8-3.3-.9-4.9-1.6-6.1-1.3-2.2-2.9-4.2-4.4-6.2-1.3 2.8-4.4 6.2-3.6 8.1 2 4.8 5.2 9.5 8.8 13.3 7.1 7.5 11.8 15.6 10.7 26.4-.8 7.8-6.1 14.6-12.9 15.4-7.7.9-14-3-16.8-10.9-1.3-3.3-1.8-6.9-2.9-11.2zM476.8 1.3H500c2.6 8.6 2.6 8.6-11.3 10.9v18c6 .4 13.6-.3 9.5 10.3-2.7.3-5.7.7-9.7 1.1v31.1h-11.7V1.3zm-67 234.2c-10.1-2.2-10.9 3.2-10.4 10.5.4 7 .1 13.9.1 21.4h-11.6v-71.1h23.9v9c-3.8.3-7.8.7-11.9 1V225c3.4.3 6.4.6 9.8.9.1 2.9.1 5.6.1 9.6zm-295.9-31c-25.5-19.7-52.4-32.7-83-37.4.1-.7.1-1.3.2-2 12.7 0 25.5-.8 38.1.2 11.5 1 23 3.7 34.3 6.5 2.6.6 5.8 4.2 6.5 6.9 1.8 7.8 2.4 15.9 3.9 25.8zM292.1 98.7h11.5v46c0 14.2 0 14.2 13 16.8 1.7 6.2.9 10-7.1 9.2-5.6-.5-11.3-.1-17.4-.1V98.7zm47.3 97.5v71.2h-11.3v-71.2h11.3zM331.7 1.4h11v71.3h-11V1.4zm178.1 266.1h-10.5v-71.3h10.5v71.3z"/></g></svg>