<svg xmlns="http://www.w3.org/2000/svg" width="424.2" height="123.1" viewBox="0 0 424.2 123.1"><g><g fill="#FFF"><path d="M114.2 22.7c-21.4 0-38.9 17.2-38.9 38.8 0 21.2 17 39 38.5 39 21.7 0 38.8-17.7 38.8-39.2 0-21-17.1-38.6-38.4-38.6zm-.4 61.2c-12.6 0-21.9-10.5-21.9-22.6 0-12.3 10.2-22.1 22.3-22.1 12.3 0 21.8 10.5 21.8 22.5 0 12.3-9.9 22.2-22.2 22.2zm83.3-61.2c-21.4 0-38.9 17.2-38.9 38.8 0 21.2 17 39 38.5 39 21.7 0 38.8-17.7 38.8-39.2 0-21-17.1-38.6-38.4-38.6zm-.4 61.2c-12.6 0-21.9-10.5-21.9-22.6 0-12.3 10.2-22.1 22.3-22.1 12.3 0 21.8 10.5 21.8 22.5 0 12.3-9.9 22.2-22.2 22.2zM332.8 0c-4.8 0-8.6 3.9-8.6 8.6v83.2c0 4.8 3.9 8.6 8.6 8.6 4.8 0 8.6-3.9 8.6-8.6V8.6c.1-4.7-3.8-8.6-8.6-8.6zm-52.7 22.7c-8.1 0-15.6 2.5-21.7 6.7-.9-3.8-4.4-6.7-8.5-6.7-4.8 0-8.5 3.9-8.5 8.6v83.2c0 4.8 3.7 8.6 8.5 8.6s8.5-3.9 8.5-8.6V93.8c6 4.1 13.5 6.7 21.3 6.7 21.4 0 38.9-17.2 38.9-38.8-.1-21.3-17-39-38.5-39zm0 61.2c-12.3 0-22.2-9.9-22.2-22.2 0-12 9.5-22.5 21.8-22.5 12.1 0 22.3 9.8 22.3 22.1 0 12.1-9.4 22.6-21.9 22.6zm135.6-61.2c-4.1 0-7.6 2.9-8.5 6.7-6.2-4.2-13.6-6.7-21.7-6.7-21.5 0-38.5 17.8-38.5 39 0 21.5 17.5 38.8 38.9 38.8 7.8 0 15.3-2.6 21.3-6.7.9 3.8 4.4 6.7 8.5 6.7 4.8 0 8.5-3.9 8.5-8.6V31.3c0-4.8-3.7-8.6-8.5-8.6zm-30.2 61.2c-12.6 0-21.9-10.5-21.9-22.6 0-12.3 10.2-22.1 22.3-22.1 12.3 0 21.8 10.5 21.8 22.5 0 12.3-9.9 22.2-22.2 22.2zM63.2 65.3c-4.8 0-8.6 3.9-8.6 8.6v8.8H22.9l44.4-65c1.2-1.8 1.9-3.9 1.9-6.2 0-6-4.8-10.8-10.8-10.9H8.6C3.9.6 0 4.4 0 9.2s3.9 8.6 8.6 8.6h37.8L2.1 82.5S0 85.4 0 88.9c0 6 4.9 10.9 10.9 10.9h60.9v-26c0-4.7-3.8-8.5-8.6-8.5z"/></g></g></svg>